<svg id="visual" viewBox="0 0 600 150" width="600" height="150" xmlns="http://www.w3.org/2000/svg" xmlns:xlink="http://www.w3.org/1999/xlink" version="1.1"><path d="M0 58L75 48L150 33L225 30L300 42L375 43L450 33L525 52L600 33L600 0L525 0L450 0L375 0L300 0L225 0L150 0L75 0L0 0Z" fill="#fed766"></path><path d="M0 70L75 72L150 48L225 45L300 52L375 62L450 55L525 69L600 55L600 31L525 50L450 31L375 41L300 40L225 28L150 31L75 46L0 56Z" fill="#ffe18d"></path><path d="M0 91L75 91L150 82L225 79L300 69L375 82L450 85L525 91L600 79L600 53L525 67L450 53L375 60L300 50L225 43L150 46L75 70L0 68Z" fill="#ffebb3"></path><path d="M0 114L75 103L150 94L225 104L300 82L375 111L450 103L525 115L600 97L600 77L525 89L450 83L375 80L300 67L225 77L150 80L75 89L0 89Z" fill="#fff5d9"></path><path d="M0 151L75 151L150 151L225 151L300 151L375 151L450 151L525 151L600 151L600 95L525 113L450 101L375 109L300 80L225 102L150 92L75 101L0 112Z" fill="#ffffff"></path></svg>