<svg id="visual" viewBox="0 0 600 150" width="600" height="150" xmlns="http://www.w3.org/2000/svg" xmlns:xlink="http://www.w3.org/1999/xlink" version="1.1"><path d="M0 18L9.2 17.2C18.3 16.3 36.7 14.7 54.8 15.7C73 16.7 91 20.3 109.2 20.2C127.3 20 145.7 16 163.8 15C182 14 200 16 218.2 18C236.3 20 254.7 22 272.8 21.7C291 21.3 309 18.7 327.2 16.8C345.3 15 363.7 14 381.8 13.8C400 13.7 418 14.3 436.2 14.2C454.3 14 472.7 13 490.8 12.5C509 12 527 12 545.2 12.5C563.3 13 581.7 14 590.8 14.5L600 15L600 0L590.8 0C581.7 0 563.3 0 545.2 0C527 0 509 0 490.8 0C472.7 0 454.3 0 436.2 0C418 0 400 0 381.8 0C363.7 0 345.3 0 327.2 0C309 0 291 0 272.8 0C254.7 0 236.3 0 218.2 0C200 0 182 0 163.8 0C145.7 0 127.3 0 109.2 0C91 0 73 0 54.8 0C36.7 0 18.3 0 9.2 0L0 0Z" fill="#ffffff"></path><path d="M0 69L9.2 70C18.3 71 36.7 73 54.8 75.2C73 77.3 91 79.7 109.2 74.2C127.3 68.7 145.7 55.3 163.8 53.2C182 51 200 60 218.2 61.7C236.3 63.3 254.7 57.7 272.8 57.8C291 58 309 64 327.2 65.5C345.3 67 363.7 64 381.8 60.3C400 56.7 418 52.3 436.2 51.7C454.3 51 472.7 54 490.8 52C509 50 527 43 545.2 43.2C563.3 43.3 581.7 50.7 590.8 54.3L600 58L600 13L590.8 12.5C581.7 12 563.3 11 545.2 10.5C527 10 509 10 490.8 10.5C472.7 11 454.3 12 436.2 12.2C418 12.3 400 11.7 381.8 11.8C363.7 12 345.3 13 327.2 14.8C309 16.7 291 19.3 272.8 19.7C254.7 20 236.3 18 218.2 16C200 14 182 12 163.8 13C145.7 14 127.3 18 109.2 18.2C91 18.3 73 14.7 54.8 13.7C36.7 12.7 18.3 14.3 9.2 15.2L0 16Z" fill="#e7f2ff"></path><path d="M0 81L9.2 83.2C18.3 85.3 36.7 89.7 54.8 91.8C73 94 91 94 109.2 90C127.3 86 145.7 78 163.8 78C182 78 200 86 218.2 86C236.3 86 254.7 78 272.8 78C291 78 309 86 327.2 88.3C345.3 90.7 363.7 87.3 381.8 82.7C400 78 418 72 436.2 72.2C454.3 72.3 472.7 78.7 490.8 76.7C509 74.7 527 64.3 545.2 63.8C563.3 63.3 581.7 72.7 590.8 77.3L600 82L600 56L590.8 52.3C581.7 48.7 563.3 41.3 545.2 41.2C527 41 509 48 490.8 50C472.7 52 454.3 49 436.2 49.7C418 50.3 400 54.7 381.8 58.3C363.7 62 345.3 65 327.2 63.5C309 62 291 56 272.8 55.8C254.7 55.7 236.3 61.3 218.2 59.7C200 58 182 49 163.8 51.2C145.7 53.3 127.3 66.7 109.2 72.2C91 77.7 73 75.3 54.8 73.2C36.7 71 18.3 69 9.2 68L0 67Z" fill="#cee6ff"></path><path d="M0 114L9.2 116C18.3 118 36.7 122 54.8 124C73 126 91 126 109.2 125.7C127.3 125.3 145.7 124.7 163.8 124.8C182 125 200 126 218.2 126C236.3 126 254.7 125 272.8 123.3C291 121.7 309 119.3 327.2 118.7C345.3 118 363.7 119 381.8 120.7C400 122.3 418 124.7 436.2 127.7C454.3 130.7 472.7 134.3 490.8 131.8C509 129.3 527 120.7 545.2 118.8C563.3 117 581.7 122 590.8 124.5L600 127L600 80L590.8 75.3C581.7 70.7 563.3 61.3 545.2 61.8C527 62.3 509 72.7 490.8 74.7C472.7 76.7 454.3 70.3 436.2 70.2C418 70 400 76 381.8 80.7C363.7 85.3 345.3 88.7 327.2 86.3C309 84 291 76 272.8 76C254.7 76 236.3 84 218.2 84C200 84 182 76 163.8 76C145.7 76 127.3 84 109.2 88C91 92 73 92 54.8 89.8C36.7 87.7 18.3 83.3 9.2 81.2L0 79Z" fill="#b3d9ff"></path><path d="M0 151L9.2 151C18.3 151 36.7 151 54.8 151C73 151 91 151 109.2 151C127.3 151 145.7 151 163.8 151C182 151 200 151 218.2 151C236.3 151 254.7 151 272.8 151C291 151 309 151 327.2 151C345.3 151 363.7 151 381.8 151C400 151 418 151 436.2 151C454.3 151 472.7 151 490.8 151C509 151 527 151 545.2 151C563.3 151 581.7 151 590.8 151L600 151L600 125L590.8 122.5C581.7 120 563.3 115 545.2 116.8C527 118.7 509 127.3 490.8 129.8C472.7 132.3 454.3 128.7 436.2 125.7C418 122.7 400 120.3 381.8 118.7C363.7 117 345.3 116 327.2 116.7C309 117.3 291 119.7 272.8 121.3C254.7 123 236.3 124 218.2 124C200 124 182 123 163.8 122.8C145.7 122.7 127.3 123.3 109.2 123.7C91 124 73 124 54.8 122C36.7 120 18.3 116 9.2 114L0 112Z" fill="#96cdff"></path></svg>