<svg id="visual" viewBox="0 0 600 150" width="600" height="150" xmlns="http://www.w3.org/2000/svg" xmlns:xlink="http://www.w3.org/1999/xlink" version="1.1"><path d="M0 46L120 24L240 42L360 45L480 45L600 70L600 0L480 0L360 0L240 0L120 0L0 0Z" fill="#ffffff"></path><path d="M0 58L120 39L240 73L360 61L480 55L600 90L600 68L480 43L360 43L240 40L120 22L0 44Z" fill="#b9b9ba"></path><path d="M0 76L120 64L240 85L360 78L480 76L600 103L600 88L480 53L360 59L240 71L120 37L0 56Z" fill="#787879"></path><path d="M0 112L120 126L240 133L360 138L480 124L600 136L600 101L480 74L360 76L240 83L120 62L0 74Z" fill="#3d3d3e"></path><path d="M0 151L120 151L240 151L360 151L480 151L600 151L600 134L480 122L360 136L240 131L120 124L0 110Z" fill="#030405"></path></svg>